<svg width="354" height="118" viewBox="0 0 354 118" fill="none" xmlns="http://www.w3.org/2000/svg">
<g clip-path="url(#clip0_1_100)">
<path d="M28.47 32.75H36.4V81.5H28.47V77.4375C27.43 78.8892 26.1192 80.07 24.5375 80.98C22.9558 81.89 21.125 82.345 19.045 82.345C16.6833 82.345 14.4733 81.9008 12.415 81.0125C10.3567 80.1242 8.53667 78.9 6.955 77.34C5.395 75.7583 4.17083 73.9383 3.2825 71.88C2.39417 69.8217 1.95 67.6117 1.95 65.25C1.95 62.8883 2.39417 60.6783 3.2825 58.62C4.17083 56.5617 5.395 54.7525 6.955 53.1925C8.53667 51.6108 10.3567 50.3758 12.415 49.4875C14.4733 48.5992 16.6833 48.155 19.045 48.155C21.125 48.155 22.9558 48.61 24.5375 49.52C26.1192 50.4083 27.43 51.5892 28.47 53.0625V32.75ZM19.1425 74.7075C20.8325 74.7075 22.3275 74.285 23.6275 73.44C24.9275 72.595 25.9458 71.4575 26.6825 70.0275C27.4192 68.5758 27.7875 66.9833 27.7875 65.25C27.7875 63.495 27.4192 61.9025 26.6825 60.4725C25.9458 59.0208 24.9167 57.8725 23.595 57.0275C22.295 56.1825 20.8108 55.76 19.1425 55.76C17.4742 55.76 15.9467 56.1933 14.56 57.06C13.195 57.905 12.1008 59.0425 11.2775 60.4725C10.4758 61.9025 10.075 63.495 10.075 65.25C10.075 67.005 10.4867 68.5975 11.31 70.0275C12.1333 71.4575 13.2275 72.595 14.5925 73.44C15.9792 74.285 17.4958 74.7075 19.1425 74.7075ZM42.2576 49H50.1876V81.5H42.2576V49ZM46.2876 44.8075C45.1176 44.8075 44.1318 44.4283 43.3301 43.67C42.5284 42.89 42.1276 41.915 42.1276 40.745C42.1276 39.5967 42.5284 38.6325 43.3301 37.8525C44.1318 37.0725 45.1068 36.6825 46.2551 36.6825C47.4035 36.6825 48.3676 37.0725 49.1476 37.8525C49.9493 38.6325 50.3501 39.5967 50.3501 40.745C50.3501 41.915 49.9601 42.89 49.1801 43.67C48.4001 44.4283 47.436 44.8075 46.2876 44.8075ZM79.4031 49H87.3331V82.1175C87.3331 84.4575 86.8564 86.5808 85.9031 88.4875C84.9498 90.4158 83.6498 92.0625 82.0031 93.4275C80.3564 94.8142 78.4714 95.8758 76.3481 96.6125C74.2248 97.3708 71.9931 97.75 69.6531 97.75C67.3781 97.75 65.1898 97.2842 63.0881 96.3525C60.9864 95.4208 59.1231 94.1425 57.4981 92.5175C55.8948 90.9142 54.6706 89.0833 53.8256 87.025L61.0731 83.7425C61.5064 84.9342 62.1564 85.9742 63.0231 86.8625C63.9114 87.7725 64.9298 88.4767 66.0781 88.975C67.2264 89.495 68.4181 89.755 69.6531 89.755C70.9098 89.755 72.1123 89.5817 73.2606 89.235C74.4306 88.8883 75.4814 88.3792 76.4131 87.7075C77.3448 87.0575 78.0706 86.2558 78.5906 85.3025C79.1323 84.3708 79.4031 83.3092 79.4031 82.1175V77.535C78.3848 78.965 77.1064 80.1242 75.5681 81.0125C74.0298 81.9008 72.2531 82.345 70.2381 82.345C67.8981 82.345 65.7098 81.9008 63.6731 81.0125C61.6364 80.1242 59.8381 78.9 58.2781 77.34C56.7398 75.7583 55.5264 73.9383 54.6381 71.88C53.7714 69.8217 53.3381 67.6117 53.3381 65.25C53.3381 62.8883 53.7714 60.6783 54.6381 58.62C55.5264 56.5617 56.7398 54.7525 58.2781 53.1925C59.8381 51.6108 61.6364 50.3758 63.6731 49.4875C65.7098 48.5992 67.8981 48.155 70.2381 48.155C72.2531 48.155 74.0298 48.5992 75.5681 49.4875C77.1064 50.3542 78.3848 51.5025 79.4031 52.9325V49ZM70.3356 74.7075C72.0039 74.7075 73.4773 74.285 74.7556 73.44C76.0556 72.5733 77.0739 71.425 77.8106 69.995C78.5473 68.5433 78.9156 66.9617 78.9156 65.25C78.9156 63.5167 78.5364 61.935 77.7781 60.505C77.0414 59.075 76.0231 57.9267 74.7231 57.06C73.4448 56.1933 71.9823 55.76 70.3356 55.76C68.7106 55.76 67.2264 56.1933 65.8831 57.06C64.5398 57.905 63.4673 59.0425 62.6656 60.4725C61.8639 61.9025 61.4631 63.495 61.4631 65.25C61.4631 67.005 61.8639 68.5975 62.6656 70.0275C63.4673 71.4575 64.5398 72.595 65.8831 73.44C67.2264 74.285 68.7106 74.7075 70.3356 74.7075ZM92.4397 49H100.37V81.5H92.4397V49ZM96.4697 44.8075C95.2997 44.8075 94.3138 44.4283 93.5122 43.67C92.7105 42.89 92.3097 41.915 92.3097 40.745C92.3097 39.5967 92.7105 38.6325 93.5122 37.8525C94.3138 37.0725 95.2888 36.6825 96.4372 36.6825C97.5855 36.6825 98.5497 37.0725 99.3297 37.8525C100.131 38.6325 100.532 39.5967 100.532 40.745C100.532 41.915 100.142 42.89 99.3622 43.67C98.5822 44.4283 97.618 44.8075 96.4697 44.8075ZM123.652 56.93H117.347V81.5H109.417V56.93H104.607V49H109.417V38.795H117.347V49H123.652V56.93ZM151.321 49H159.251V81.5H151.321L150.964 77.47C150.075 78.9217 148.894 80.1025 147.421 81.0125C145.969 81.9008 144.247 82.345 142.254 82.345C139.849 82.345 137.595 81.89 135.494 80.98C133.392 80.07 131.539 78.8133 129.936 77.21C128.354 75.6067 127.109 73.7542 126.199 71.6525C125.31 69.5508 124.866 67.2975 124.866 64.8925C124.866 62.5742 125.289 60.3967 126.134 58.36C127 56.3233 128.203 54.5358 129.741 52.9975C131.279 51.4592 133.056 50.2567 135.071 49.39C137.086 48.5233 139.253 48.09 141.571 48.09C143.716 48.09 145.634 48.5667 147.324 49.52C149.035 50.4733 150.487 51.6867 151.679 53.16L151.321 49ZM142.059 74.7075C143.749 74.7075 145.244 74.285 146.544 73.44C147.844 72.595 148.862 71.4575 149.599 70.0275C150.335 68.5758 150.704 66.9833 150.704 65.25C150.704 63.495 150.335 61.9025 149.599 60.4725C148.862 59.0208 147.833 57.8725 146.511 57.0275C145.211 56.1825 143.727 55.76 142.059 55.76C140.39 55.76 138.863 56.1933 137.476 57.06C136.111 57.905 135.017 59.0425 134.194 60.4725C133.392 61.9025 132.991 63.495 132.991 65.25C132.991 67.005 133.403 68.5975 134.226 70.0275C135.049 71.4575 136.144 72.595 137.509 73.44C138.895 74.285 140.412 74.7075 142.059 74.7075ZM163.968 81.5V32.75H171.898V81.5H163.968ZM177.76 81.5V32.75H185.69V81.5H177.76Z" fill="#0A0E2A"/>
<path d="M196.49 32.5484V34.1984H194.29V40.2484H192.64V34.1984H190.44V32.5484H196.49ZM196.786 40.2484L200.273 34.1984H196.489V32.5484H202.187V34.1984L198.689 40.2484H196.786Z" fill="#0A0E2A"/>
<rect width="118" height="118" transform="translate(235.871)" fill="#0A0E2A"/>
<path d="M311.807 84.3203V70.4986H314.055V84.3203H311.807Z" fill="white"/>
<path d="M308.221 75.1058H310.469V84.3203H308.221L308.12 83.1777C307.868 83.5893 307.533 83.9241 307.115 84.1821C306.704 84.4339 306.215 84.5599 305.65 84.5599C304.968 84.5599 304.33 84.4309 303.734 84.1729C303.138 83.9149 302.613 83.5586 302.158 83.104C301.71 82.6494 301.356 82.1242 301.098 81.5283C300.847 80.9325 300.721 80.2936 300.721 79.6117C300.721 78.9544 300.84 78.337 301.08 77.7596C301.326 77.1822 301.667 76.6754 302.103 76.2392C302.539 75.8031 303.043 75.4621 303.614 75.2164C304.185 74.9707 304.8 74.8478 305.457 74.8478C306.065 74.8478 306.609 74.983 307.088 75.2533C307.573 75.5236 307.985 75.8676 308.323 76.2853L308.221 75.1058ZM305.595 82.3945C306.074 82.3945 306.498 82.2747 306.867 82.0351C307.235 81.7955 307.524 81.473 307.733 81.0676C307.942 80.656 308.046 80.2045 308.046 79.7131C308.046 79.2155 307.942 78.764 307.733 78.3585C307.524 77.947 307.232 77.6214 306.857 77.3818C306.489 77.1422 306.068 77.0225 305.595 77.0225C305.122 77.0225 304.689 77.1453 304.296 77.391C303.909 77.6306 303.599 77.9531 303.365 78.3585C303.138 78.764 303.024 79.2155 303.024 79.7131C303.024 80.2107 303.141 80.6622 303.374 81.0676C303.608 81.473 303.918 81.7955 304.305 82.0351C304.698 82.2747 305.128 82.3945 305.595 82.3945Z" fill="white"/>
<path d="M300.376 77.3541H298.589V84.3203H296.34V77.3541H294.977V75.1058H296.34V72.2125H298.589V75.1058H300.376V77.3541Z" fill="white"/>
<path d="M291.527 75.1058H293.775V84.3203H291.527V75.1058ZM292.67 73.9171C292.338 73.9171 292.058 73.8096 291.831 73.5946C291.604 73.3735 291.49 73.0971 291.49 72.7653C291.49 72.4398 291.604 72.1664 291.831 71.9452C292.058 71.7241 292.335 71.6135 292.66 71.6135C292.986 71.6135 293.259 71.7241 293.48 71.9452C293.708 72.1664 293.821 72.4398 293.821 72.7653C293.821 73.0971 293.711 73.3735 293.49 73.5946C293.269 73.8096 292.995 73.9171 292.67 73.9171Z" fill="white"/>
<path d="M287.831 75.1058H290.079V84.4954C290.079 85.1588 289.944 85.7608 289.674 86.3014C289.403 86.8481 289.035 87.315 288.568 87.702C288.101 88.0952 287.567 88.3962 286.965 88.605C286.363 88.82 285.73 88.9275 285.066 88.9275C284.421 88.9275 283.801 88.7955 283.205 88.5313C282.609 88.2672 282.081 87.9047 281.62 87.444C281.166 86.9894 280.819 86.4703 280.579 85.8868L282.634 84.9561C282.757 85.294 282.941 85.5888 283.187 85.8407C283.439 86.0987 283.727 86.2983 284.053 86.4396C284.378 86.5871 284.716 86.6608 285.066 86.6608C285.423 86.6608 285.764 86.6116 286.089 86.5133C286.421 86.4151 286.719 86.2707 286.983 86.0803C287.247 85.896 287.453 85.6687 287.6 85.3984C287.754 85.1342 287.831 84.8332 287.831 84.4954V83.1961C287.542 83.6016 287.18 83.9302 286.743 84.1821C286.307 84.4339 285.804 84.5599 285.232 84.5599C284.569 84.5599 283.948 84.4339 283.371 84.1821C282.794 83.9302 282.284 83.5831 281.841 83.1409C281.405 82.6924 281.061 82.1764 280.809 81.5928C280.564 81.0092 280.441 80.3827 280.441 79.7131C280.441 79.0435 280.564 78.4169 280.809 77.8333C281.061 77.2497 281.405 76.7368 281.841 76.2945C282.284 75.8461 282.794 75.4959 283.371 75.2441C283.948 74.9922 284.569 74.8663 285.232 74.8663C285.804 74.8663 286.307 74.9922 286.743 75.2441C287.18 75.4898 287.542 75.8154 287.831 76.2208V75.1058ZM285.26 82.3945C285.733 82.3945 286.151 82.2747 286.513 82.0351C286.882 81.7894 287.17 81.4638 287.379 81.0584C287.588 80.6468 287.693 80.1984 287.693 79.7131C287.693 79.2216 287.585 78.7732 287.37 78.3678C287.161 77.9623 286.872 77.6367 286.504 77.391C286.141 77.1453 285.727 77.0225 285.26 77.0225C284.799 77.0225 284.378 77.1453 283.998 77.391C283.617 77.6306 283.313 77.9531 283.085 78.3586C282.858 78.764 282.744 79.2155 282.744 79.7131C282.744 80.2107 282.858 80.6622 283.085 81.0676C283.313 81.473 283.617 81.7955 283.998 82.0351C284.378 82.2747 284.799 82.3945 285.26 82.3945Z" fill="white"/>
<path d="M277.299 75.1058H279.548V84.3203H277.299V75.1058ZM278.442 73.9171C278.11 73.9171 277.831 73.8096 277.603 73.5946C277.376 73.3735 277.262 73.0971 277.262 72.7653C277.262 72.4398 277.376 72.1664 277.603 71.9452C277.831 71.7241 278.107 71.6135 278.433 71.6135C278.758 71.6135 279.032 71.7241 279.253 71.9452C279.48 72.1664 279.594 72.4398 279.594 72.7653C279.594 73.0971 279.483 73.3735 279.262 73.5946C279.041 73.8096 278.767 73.9171 278.442 73.9171Z" fill="white"/>
<path d="M273.39 70.4986H275.639V84.3203H273.39V83.1685C273.095 83.5801 272.724 83.9148 272.275 84.1728C271.827 84.4309 271.308 84.5599 270.718 84.5599C270.048 84.5599 269.422 84.4339 268.838 84.1821C268.255 83.9302 267.739 83.5831 267.29 83.1408C266.848 82.6924 266.501 82.1764 266.249 81.5928C265.997 81.0092 265.871 80.3826 265.871 79.7131C265.871 79.0435 265.997 78.4169 266.249 77.8333C266.501 77.2497 266.848 76.7368 267.29 76.2945C267.739 75.8461 268.255 75.4959 268.838 75.244C269.422 74.9922 270.048 74.8662 270.718 74.8662C271.308 74.8662 271.827 74.9952 272.275 75.2533C272.724 75.5051 273.095 75.8399 273.39 76.2576V70.4986ZM270.746 82.3945C271.225 82.3945 271.649 82.2747 272.017 82.0351C272.386 81.7955 272.675 81.473 272.883 81.0676C273.092 80.656 273.197 80.2045 273.197 79.7131C273.197 79.2155 273.092 78.764 272.883 78.3585C272.675 77.9469 272.383 77.6214 272.008 77.3818C271.639 77.1422 271.219 77.0224 270.746 77.0224C270.273 77.0224 269.84 77.1453 269.446 77.391C269.059 77.6306 268.749 77.9531 268.516 78.3585C268.288 78.764 268.175 79.2155 268.175 79.7131C268.175 80.2106 268.292 80.6621 268.525 81.0676C268.758 81.473 269.069 81.7955 269.456 82.0351C269.849 82.2747 270.279 82.3945 270.746 82.3945Z" fill="white"/>
<path d="M320.917 54.6072H323.304L318.264 68.4289H315.877L317.545 63.8217L314.228 54.6072H316.688L318.669 60.7441L320.917 54.6072Z" fill="white"/>
<path d="M313.817 57.9982V63.8217H311.569V58.5879C311.569 58.2255 311.48 57.8968 311.302 57.6019C311.124 57.3009 310.884 57.0644 310.583 56.8924C310.288 56.7143 309.959 56.6252 309.597 56.6252C309.235 56.6252 308.903 56.7143 308.602 56.8924C308.307 57.0644 308.071 57.3009 307.892 57.6019C307.72 57.8968 307.634 58.2255 307.634 58.5879V63.8217H305.386L305.377 54.6072H307.625L307.634 55.4273C307.948 55.0956 308.322 54.8345 308.759 54.6441C309.195 54.4475 309.665 54.3492 310.168 54.3492C310.838 54.3492 311.449 54.5151 312.002 54.8468C312.555 55.1724 312.994 55.6116 313.32 56.1645C313.651 56.7112 313.817 57.3224 313.817 57.9982Z" fill="white"/>
<path d="M299.888 64.0613C299.04 64.0613 298.266 63.8432 297.566 63.4071C296.872 62.9709 296.316 62.3842 295.898 61.6471C295.486 60.9099 295.281 60.096 295.281 59.2053C295.281 58.5357 295.4 57.9091 295.64 57.3255C295.879 56.7358 296.208 56.2198 296.626 55.7775C297.05 55.329 297.541 54.9789 298.1 54.727C298.659 54.4752 299.255 54.3492 299.888 54.3492C300.606 54.3492 301.264 54.5028 301.86 54.81C302.462 55.111 302.972 55.5256 303.389 56.0539C303.807 56.5822 304.111 57.1842 304.301 57.86C304.492 58.5357 304.535 59.2421 304.43 59.9793H297.695C297.781 60.3233 297.922 60.6335 298.119 60.9099C298.315 61.1802 298.564 61.3983 298.865 61.5642C299.166 61.7239 299.507 61.8068 299.888 61.813C300.281 61.8191 300.637 61.7269 300.957 61.5365C301.282 61.3399 301.552 61.0758 301.767 60.7441L304.062 61.2785C303.687 62.0955 303.128 62.7651 302.385 63.2873C301.642 63.8033 300.809 64.0613 299.888 64.0613ZM297.621 58.293H302.155C302.087 57.9245 301.943 57.5927 301.721 57.2979C301.506 56.9969 301.239 56.7573 300.92 56.5791C300.6 56.401 300.256 56.3119 299.888 56.3119C299.519 56.3119 299.178 56.401 298.865 56.5791C298.552 56.7511 298.284 56.9876 298.063 57.2887C297.848 57.5835 297.701 57.9183 297.621 58.293Z" fill="white"/>
<path d="M291.24 63.9876C290.761 63.9568 290.297 63.8616 289.848 63.7019C289.406 63.536 289.013 63.3118 288.669 63.0293C288.325 62.7467 288.061 62.4088 287.876 62.0157L289.775 61.2048C289.848 61.3276 289.968 61.4597 290.134 61.601C290.3 61.7362 290.496 61.8498 290.724 61.9419C290.957 62.0341 291.212 62.0802 291.489 62.0802C291.722 62.0802 291.943 62.0494 292.152 61.988C292.367 61.9204 292.539 61.8191 292.668 61.6839C292.803 61.5488 292.871 61.3737 292.871 61.1587C292.871 60.9314 292.791 60.7563 292.631 60.6335C292.478 60.5045 292.281 60.4093 292.041 60.3478C291.808 60.2803 291.581 60.2188 291.36 60.1636C290.776 60.0468 290.232 59.8656 289.729 59.6199C289.231 59.3742 288.829 59.0578 288.521 58.6708C288.22 58.2777 288.07 57.8047 288.07 57.2518C288.07 56.6436 288.23 56.1184 288.549 55.6761C288.875 55.2338 289.295 54.8929 289.812 54.6533C290.334 54.4137 290.896 54.2939 291.498 54.2939C292.229 54.2939 292.898 54.4475 293.506 54.7547C294.121 55.0557 294.606 55.4826 294.962 56.0355L293.184 57.0859C293.098 56.9385 292.978 56.8033 292.825 56.6805C292.671 56.5515 292.496 56.4471 292.299 56.3672C292.103 56.2812 291.897 56.2321 291.682 56.2198C291.406 56.2075 291.154 56.2321 290.926 56.2935C290.699 56.3549 290.515 56.4593 290.374 56.6068C290.238 56.7542 290.171 56.9508 290.171 57.1965C290.171 57.4299 290.263 57.605 290.447 57.7217C290.632 57.8323 290.853 57.9183 291.111 57.9797C291.375 58.0412 291.627 58.1087 291.866 58.1824C292.407 58.3606 292.914 58.5787 293.387 58.8367C293.866 59.0947 294.25 59.411 294.539 59.7858C294.827 60.1605 294.965 60.6089 294.953 61.1311C294.953 61.7269 294.775 62.2491 294.419 62.6975C294.062 63.1398 293.602 63.4777 293.037 63.7111C292.478 63.9446 291.879 64.0367 291.24 63.9876Z" fill="white"/>
<path d="M283.784 63.9876C283.305 63.9568 282.841 63.8616 282.393 63.7019C281.95 63.536 281.557 63.3118 281.213 63.0293C280.869 62.7467 280.605 62.4088 280.421 62.0157L282.319 61.2048C282.393 61.3276 282.512 61.4597 282.678 61.601C282.844 61.7362 283.041 61.8498 283.268 61.9419C283.501 62.0341 283.756 62.0802 284.033 62.0802C284.266 62.0802 284.487 62.0494 284.696 61.988C284.911 61.9204 285.083 61.8191 285.212 61.6839C285.347 61.5488 285.415 61.3737 285.415 61.1587C285.415 60.9314 285.335 60.7563 285.175 60.6335C285.022 60.5045 284.825 60.4093 284.586 60.3478C284.352 60.2803 284.125 60.2188 283.904 60.1636C283.32 60.0468 282.776 59.8656 282.273 59.6199C281.775 59.3742 281.373 59.0578 281.066 58.6708C280.765 58.2777 280.614 57.8047 280.614 57.2518C280.614 56.6436 280.774 56.1184 281.093 55.6761C281.419 55.2338 281.84 54.8929 282.356 54.6533C282.878 54.4137 283.44 54.2939 284.042 54.2939C284.773 54.2939 285.443 54.4475 286.051 54.7547C286.665 55.0557 287.15 55.4826 287.507 56.0355L285.728 57.0859C285.642 56.9385 285.522 56.8033 285.369 56.6805C285.215 56.5515 285.04 56.4471 284.844 56.3672C284.647 56.2812 284.441 56.2321 284.226 56.2198C283.95 56.2075 283.698 56.2321 283.471 56.2935C283.243 56.3549 283.059 56.4593 282.918 56.6068C282.783 56.7542 282.715 56.9508 282.715 57.1965C282.715 57.4299 282.807 57.605 282.991 57.7217C283.176 57.8323 283.397 57.9183 283.655 57.9797C283.919 58.0412 284.171 58.1087 284.411 58.1824C284.951 58.3606 285.458 58.5787 285.931 58.8367C286.41 59.0947 286.794 59.411 287.083 59.7858C287.371 60.1605 287.51 60.6089 287.497 61.1311C287.497 61.7269 287.319 62.2491 286.963 62.6975C286.607 63.1398 286.146 63.4777 285.581 63.7111C285.022 63.9446 284.423 64.0367 283.784 63.9876Z" fill="white"/>
<path d="M277.299 54.6073H279.548V63.8217H277.299V54.6073ZM278.442 53.4186C278.11 53.4186 277.831 53.3111 277.603 53.0961C277.376 52.875 277.262 52.5985 277.262 52.2668C277.262 51.9412 277.376 51.6679 277.603 51.4467C277.831 51.2256 278.107 51.115 278.433 51.115C278.758 51.115 279.032 51.2256 279.253 51.4467C279.48 51.6679 279.594 51.9412 279.594 52.2668C279.594 52.5985 279.483 52.875 279.262 53.0961C279.041 53.3111 278.767 53.4186 278.442 53.4186Z" fill="white"/>
<path d="M273.39 50H275.639V63.8217H273.39V62.6699C273.095 63.0815 272.724 63.4162 272.275 63.6743C271.827 63.9323 271.308 64.0613 270.718 64.0613C270.048 64.0613 269.422 63.9353 268.838 63.6835C268.255 63.4316 267.739 63.0845 267.29 62.6422C266.848 62.1938 266.501 61.6778 266.249 61.0942C265.997 60.5106 265.871 59.884 265.871 59.2145C265.871 58.5449 265.997 57.9183 266.249 57.3347C266.501 56.7511 266.848 56.2382 267.29 55.7959C267.739 55.3475 268.255 54.9973 268.838 54.7454C269.422 54.4936 270.048 54.3677 270.718 54.3677C271.308 54.3677 271.827 54.4967 272.275 54.7547C272.724 55.0065 273.095 55.3413 273.39 55.759V50ZM270.746 61.8959C271.225 61.8959 271.649 61.7761 272.017 61.5365C272.386 61.2969 272.675 60.9744 272.883 60.569C273.092 60.1574 273.197 59.7059 273.197 59.2145C273.197 58.7169 273.092 58.2654 272.883 57.8599C272.675 57.4484 272.383 57.1228 272.008 56.8832C271.639 56.6436 271.219 56.5238 270.746 56.5238C270.273 56.5238 269.84 56.6467 269.446 56.8924C269.059 57.132 268.749 57.4545 268.516 57.8599C268.288 58.2654 268.175 58.7169 268.175 59.2145C268.175 59.712 268.292 60.1635 268.525 60.569C268.758 60.9744 269.069 61.2969 269.456 61.5365C269.849 61.7761 270.279 61.8959 270.746 61.8959Z" fill="white"/>
<path d="M309.642 34.1072H311.89V43.3217H309.642V34.1072ZM310.785 32.9185C310.453 32.9185 310.173 32.811 309.946 32.596C309.719 32.3749 309.605 32.0985 309.605 31.7667C309.605 31.4412 309.719 31.1678 309.946 30.9466C310.173 30.7255 310.45 30.6149 310.775 30.6149C311.101 30.6149 311.374 30.7255 311.595 30.9466C311.823 31.1678 311.936 31.4412 311.936 31.7667C311.936 32.0985 311.826 32.3749 311.605 32.596C311.383 32.811 311.11 32.9185 310.785 32.9185Z" fill="white"/>
<path d="M305.733 29.5H307.981V43.3217H305.733V42.1699C305.438 42.5815 305.066 42.9163 304.618 43.1743C304.17 43.4323 303.651 43.5613 303.061 43.5613C302.391 43.5613 301.765 43.4353 301.181 43.1835C300.597 42.9316 300.081 42.5845 299.633 42.1422C299.191 41.6938 298.844 41.1778 298.592 40.5942C298.34 40.0106 298.214 39.384 298.214 38.7145C298.214 38.0449 298.34 37.4183 298.592 36.8347C298.844 36.2511 299.191 35.7382 299.633 35.2959C300.081 34.8475 300.597 34.4973 301.181 34.2454C301.765 33.9936 302.391 33.8677 303.061 33.8677C303.651 33.8677 304.17 33.9967 304.618 34.2547C305.066 34.5065 305.438 34.8413 305.733 35.259V29.5ZM303.088 41.3959C303.568 41.3959 303.991 41.2761 304.36 41.0365C304.729 40.7969 305.017 40.4744 305.226 40.069C305.435 39.6574 305.539 39.2059 305.539 38.7145C305.539 38.2169 305.435 37.7654 305.226 37.3599C305.017 36.9484 304.726 36.6228 304.351 36.3832C303.982 36.1436 303.561 36.0238 303.088 36.0238C302.615 36.0238 302.182 36.1467 301.789 36.3924C301.402 36.632 301.092 36.9545 300.859 37.3599C300.631 37.7654 300.518 38.2169 300.518 38.7145C300.518 39.212 300.634 39.6635 300.868 40.069C301.101 40.4744 301.411 40.7969 301.798 41.0365C302.192 41.2761 302.622 41.3959 303.088 41.3959Z" fill="white"/>
<path d="M289.179 39.9123V34.1072H291.427V39.3226C291.427 39.6851 291.516 40.0168 291.694 40.3178C291.872 40.6126 292.109 40.8491 292.404 41.0273C292.705 41.1993 293.033 41.2853 293.39 41.2853C293.758 41.2853 294.09 41.1993 294.385 41.0273C294.68 40.8491 294.916 40.6126 295.094 40.3178C295.273 40.0168 295.362 39.6851 295.362 39.3226V34.1072H297.61L297.619 43.3217H295.371L295.362 42.4832C295.042 42.8149 294.664 43.079 294.228 43.2756C293.792 43.4661 293.325 43.5613 292.828 43.5613C292.158 43.5613 291.547 43.3985 290.994 43.0729C290.441 42.7412 289.999 42.302 289.667 41.7552C289.341 41.2024 289.179 40.5881 289.179 39.9123Z" fill="white"/>
<path d="M288.434 36.3556H286.646V43.3217H284.398V36.3556H283.034V34.1072H284.398V31.2139H286.646V34.1072H288.434V36.3556Z" fill="white"/>
<path d="M278.758 43.4876C278.279 43.4568 277.815 43.3616 277.366 43.2019C276.924 43.036 276.531 42.8118 276.187 42.5293C275.843 42.2467 275.579 41.9088 275.395 41.5157L277.293 40.7048C277.366 40.8276 277.486 40.9597 277.652 41.101C277.818 41.2362 278.015 41.3498 278.242 41.4419C278.475 41.5341 278.73 41.5802 279.007 41.5802C279.24 41.5802 279.461 41.5494 279.67 41.488C279.885 41.4204 280.057 41.3191 280.186 41.1839C280.321 41.0488 280.389 40.8737 280.389 40.6587C280.389 40.4314 280.309 40.2564 280.149 40.1335C279.996 40.0045 279.799 39.9093 279.559 39.8478C279.326 39.7803 279.099 39.7188 278.878 39.6636C278.294 39.5468 277.75 39.3656 277.247 39.1199C276.749 38.8742 276.347 38.5578 276.04 38.1708C275.739 37.7777 275.588 37.3047 275.588 36.7518C275.588 36.1436 275.748 35.6184 276.067 35.1761C276.393 34.7338 276.814 34.3929 277.33 34.1533C277.852 33.9137 278.414 33.7939 279.016 33.7939C279.747 33.7939 280.416 33.9475 281.025 34.2547C281.639 34.5557 282.124 34.9826 282.48 35.5355L280.702 36.5859C280.616 36.4385 280.496 36.3033 280.343 36.1805C280.189 36.0515 280.014 35.9471 279.817 35.8672C279.621 35.7812 279.415 35.7321 279.2 35.7198C278.924 35.7075 278.672 35.7321 278.445 35.7935C278.217 35.8549 278.033 35.9593 277.892 36.1068C277.757 36.2542 277.689 36.4508 277.689 36.6965C277.689 36.9299 277.781 37.105 277.965 37.2217C278.15 37.3323 278.371 37.4183 278.629 37.4797C278.893 37.5412 279.145 37.6087 279.384 37.6824C279.925 37.8606 280.432 38.0787 280.905 38.3367C281.384 38.5947 281.768 38.911 282.057 39.2858C282.345 39.6605 282.484 40.1089 282.471 40.6311C282.471 41.2269 282.293 41.7491 281.937 42.1975C281.581 42.6398 281.12 42.9777 280.555 43.2111C279.996 43.4446 279.397 43.5367 278.758 43.4876Z" fill="white"/>
<path d="M270.478 43.5612C269.631 43.5612 268.857 43.3432 268.156 42.907C267.462 42.4709 266.906 41.8842 266.489 41.1471C266.077 40.4099 265.871 39.596 265.871 38.7052C265.871 38.0356 265.991 37.4091 266.231 36.8255C266.47 36.2358 266.799 35.7197 267.217 35.2775C267.64 34.829 268.132 34.4789 268.691 34.227C269.25 33.9751 269.846 33.8492 270.478 33.8492C271.197 33.8492 271.854 34.0028 272.45 34.3099C273.052 34.6109 273.562 35.0256 273.98 35.5539C274.398 36.0822 274.702 36.6842 274.892 37.3599C275.083 38.0356 275.126 38.7421 275.021 39.4792H268.285C268.371 39.8233 268.513 40.1335 268.709 40.4099C268.906 40.6802 269.155 40.8983 269.456 41.0641C269.757 41.2238 270.098 41.3068 270.478 41.3129C270.872 41.3191 271.228 41.2269 271.547 41.0365C271.873 40.8399 272.143 40.5758 272.358 40.244L274.653 40.7785C274.278 41.5955 273.719 42.2651 272.976 42.7872C272.232 43.3032 271.4 43.5612 270.478 43.5612ZM268.212 37.793H272.745C272.678 37.4244 272.533 37.0927 272.312 36.7978C272.097 36.4968 271.83 36.2573 271.51 36.0791C271.191 35.901 270.847 35.8119 270.478 35.8119C270.11 35.8119 269.769 35.901 269.456 36.0791C269.142 36.2511 268.875 36.4876 268.654 36.7886C268.439 37.0835 268.292 37.4183 268.212 37.793Z" fill="white"/>
</g>
<defs>
<clipPath id="clip0_1_100">
<rect width="118" height="354" fill="white" transform="matrix(0 1 -1 0 354 0)"/>
</clipPath>
</defs>
</svg>
